<svg id="Layer_1" enable-background="new 0 0 512.036 512.036" height="512" viewBox="0 0 512.036 512.036" width="512" xmlns="http://www.w3.org/2000/svg"><g><path d="m453.104 62.995c-5.807-13.536-16.36-24.298-29.716-30.302-96.98-43.592-237.76-43.592-334.743.001-13.354 6.003-23.907 16.764-29.713 30.299-44.012 102.585-44.012 251.5.001 354.086 5.806 13.533 16.357 24.293 29.71 30.296 29.423 13.225 63.017 22.597 99.868 27.889 12.435 21.962 38.177 36.771 67.507 36.771 29.331 0 55.072-14.81 67.507-36.772 36.85-5.291 70.444-14.663 99.868-27.888 13.354-6.004 23.905-16.763 29.71-30.296 44.013-102.584 44.013-251.498.001-354.084zm-18.381 346.2c-3.824 8.915-10.761 15.996-19.53 19.938-25.012 11.243-53.339 19.549-84.348 24.756.026-.184.063-.364.087-.547.722-5.475-3.132-10.499-8.607-11.221-5.474-.727-10.499 3.132-11.221 8.607-3.104 23.549-26.787 41.307-55.086 41.307s-51.981-17.758-55.086-41.307c-.722-5.476-5.75-9.334-11.221-8.607-5.476.722-9.329 5.746-8.607 11.221.024.184.061.364.087.547-31.008-5.208-59.336-13.513-84.347-24.756-8.77-3.942-15.706-11.023-19.531-19.938-20.181-47.038-31.294-107.112-31.295-169.158 0-62.046 11.114-122.12 31.294-169.158 3.826-8.917 10.763-15.999 19.534-19.941 44.331-19.927 100.858-30.901 159.171-30.901s114.841 10.974 159.171 30.9c8.772 3.943 15.711 11.026 19.536 19.944 20.181 47.038 31.294 107.112 31.294 169.157s-11.114 122.12-31.295 169.157z"/><path d="m436.018 186.036h-20v-20c0-4.082-2.48-7.754-6.268-9.277-35.515-14.29-91.026-14.372-126.789-.259-7.114-6.496-16.574-10.464-26.944-10.464s-19.829 3.968-26.944 10.463c-35.765-14.112-91.273-14.03-126.789.259-3.787 1.523-6.267 5.195-6.267 9.277v20h-20c-5.523 0-10 4.478-10 10s4.477 10 10 10h20c0 38.599 31.402 70 70 70s70-31.401 70-70v-20c0-11.028 8.972-20 20-20s20 8.972 20 20v20c0 38.599 31.402 70 70 70s70-31.401 70-70h20c5.522 0 10-4.478 10-10s-4.477-9.999-9.999-9.999z"/><path d="m338.907 306.462c-45.704-13.792-120.072-13.792-165.778 0-4.222 1.273-7.111 5.163-7.111 9.573 0 49.626 40.374 90 90 90s90-40.374 90-90c0-4.41-2.889-8.299-7.111-9.573zm-13.289 17.08c-1.075 10.043-4.291 19.452-9.169 27.774-36.791-7.028-84.073-7.028-120.864 0-4.877-8.322-8.093-17.731-9.168-27.774 40.215-10.074 98.987-10.074 139.201 0z"/></g></svg>